<svg id="svg" version="1.1" xmlns="http://www.w3.org/2000/svg" xmlns:xlink="http://www.w3.org/1999/xlink" width="400" height="541.991341991342" viewBox="0, 0, 400,541.991341991342"><g id="svgg"><path id="path0" d="M361.600 16.925 C 360.836 17.288,323.181 17.447,202.000 17.600 L 43.400 17.800 43.281 19.856 C 43.198 21.276,42.920 22.129,42.381 22.618 C 41.813 23.132,41.600 23.848,41.600 25.248 C 41.600 26.762,41.430 27.263,40.800 27.600 C 40.110 27.969,40.000 28.438,40.000 31.011 C 40.000 33.560,39.884 34.066,39.200 34.493 C 38.520 34.918,38.400 35.426,38.400 37.887 C 38.400 40.533,38.314 40.838,37.400 41.437 C 36.483 42.037,36.400 42.337,36.400 45.032 C 36.400 47.562,36.289 48.031,35.600 48.400 C 34.965 48.740,34.800 49.238,34.800 50.818 C 34.800 52.313,34.601 52.978,34.000 53.493 C 33.338 54.059,33.200 54.673,33.200 57.043 C 33.200 59.658,33.113 59.965,32.200 60.563 C 31.286 61.162,31.200 61.467,31.200 64.113 C 31.200 66.574,31.080 67.082,30.400 67.507 C 29.724 67.929,29.600 68.440,29.600 70.807 C 29.600 73.113,29.459 73.729,28.800 74.293 C 28.210 74.798,28.000 75.473,28.000 76.860 C 28.000 78.391,27.814 78.889,27.000 79.529 C 26.101 80.236,26.000 80.602,26.000 83.154 C 26.000 85.560,25.878 86.069,25.200 86.493 C 24.519 86.918,24.400 87.426,24.400 89.893 C 24.400 92.360,24.281 92.868,23.600 93.293 C 22.922 93.716,22.800 94.226,22.800 96.634 C 22.800 99.014,22.663 99.600,21.959 100.237 C 20.833 101.256,20.000 102.933,20.000 104.180 C 20.000 104.785,19.773 105.200,19.443 105.200 C 18.716 105.200,18.428 106.012,18.123 108.931 C 17.963 110.460,17.606 111.594,17.136 112.064 C 16.524 112.676,16.400 113.443,16.400 116.613 L 16.400 120.425 27.100 120.283 C 33.539 120.198,38.626 119.948,39.874 119.657 C 42.735 118.990,95.739 119.178,96.419 119.858 C 96.763 120.203,96.680 120.949,96.084 122.858 C 95.264 125.488,94.860 126.975,93.631 131.887 C 93.234 133.476,92.614 135.224,92.254 135.773 C 91.894 136.323,91.600 136.823,91.600 136.886 C 91.600 136.949,96.119 136.949,101.642 136.886 C 108.805 136.805,111.845 136.906,112.243 137.235 C 113.220 138.046,112.948 140.927,111.800 141.925 C 110.911 142.698,110.800 143.107,110.800 145.594 C 110.800 147.960,110.676 148.471,110.000 148.893 C 109.319 149.318,109.200 149.826,109.200 152.293 C 109.200 154.760,109.081 155.268,108.400 155.693 C 107.722 156.116,107.600 156.626,107.600 159.024 C 107.600 161.546,107.491 161.951,106.600 162.725 C 105.795 163.425,105.600 163.966,105.600 165.501 C 105.600 166.974,105.418 167.521,104.800 167.907 C 104.124 168.329,104.000 168.840,104.000 171.207 C 104.000 173.513,103.859 174.129,103.200 174.693 C 102.546 175.253,102.400 175.873,102.400 178.092 C 102.400 180.488,102.283 180.907,101.400 181.675 C 100.509 182.449,100.400 182.854,100.400 185.376 C 100.400 187.774,100.278 188.284,99.600 188.707 C 98.979 189.095,98.800 189.640,98.800 191.141 C 98.800 192.568,98.590 193.266,98.000 193.800 C 97.352 194.386,97.200 195.032,97.200 197.190 C 97.200 199.535,97.080 199.960,96.200 200.725 C 95.311 201.498,95.200 201.907,95.200 204.394 C 95.200 206.760,95.076 207.271,94.400 207.693 C 93.782 208.079,93.600 208.626,93.600 210.100 C 93.600 211.513,93.392 212.186,92.800 212.693 C 92.145 213.254,92.000 213.873,92.000 216.108 C 92.000 218.506,91.878 218.951,91.000 219.765 C 90.120 220.581,90.000 221.022,90.000 223.450 C 90.000 225.774,89.874 226.286,89.200 226.707 C 88.516 227.134,88.400 227.640,88.400 230.189 C 88.400 232.762,88.290 233.231,87.600 233.600 C 86.971 233.937,86.800 234.438,86.800 235.944 C 86.800 237.471,86.597 238.051,85.800 238.800 C 84.927 239.620,84.800 240.079,84.800 242.408 C 84.800 244.568,84.648 245.214,84.000 245.800 C 83.352 246.387,83.200 247.032,83.200 249.200 C 83.200 251.368,83.048 252.013,82.400 252.600 C 81.752 253.186,81.600 253.832,81.600 255.990 C 81.600 258.335,81.480 258.760,80.600 259.525 C 79.784 260.235,79.600 260.761,79.600 262.383 C 79.600 263.962,79.435 264.460,78.800 264.800 C 78.110 265.169,78.000 265.638,78.000 268.200 C 78.000 270.762,77.890 271.231,77.200 271.600 C 76.510 271.969,76.400 272.438,76.400 275.005 C 76.400 277.739,76.318 278.035,75.400 278.637 C 74.548 279.195,74.400 279.596,74.400 281.350 C 74.400 282.974,74.232 283.513,73.600 283.907 C 72.919 284.332,72.800 284.840,72.800 287.307 C 72.800 289.774,72.681 290.282,72.000 290.707 C 71.324 291.129,71.200 291.640,71.200 294.006 C 71.200 296.493,71.089 296.902,70.200 297.675 C 69.309 298.449,69.200 298.854,69.200 301.376 C 69.200 303.774,69.078 304.284,68.400 304.707 C 67.774 305.098,67.600 305.640,67.600 307.200 C 67.600 308.760,67.426 309.302,66.800 309.693 C 66.122 310.116,66.000 310.626,66.000 313.024 C 66.000 315.546,65.891 315.951,65.000 316.725 C 64.112 317.497,64.000 317.907,64.000 320.383 C 64.000 322.762,63.883 323.235,63.200 323.600 C 62.510 323.969,62.400 324.438,62.400 327.011 C 62.400 329.560,62.284 330.066,61.600 330.493 C 60.968 330.887,60.800 331.426,60.800 333.050 C 60.800 334.804,60.652 335.205,59.800 335.763 C 58.882 336.365,58.800 336.661,58.800 339.395 C 58.800 341.962,58.690 342.431,58.000 342.800 C 57.310 343.169,57.200 343.638,57.200 346.200 C 57.200 348.762,57.090 349.231,56.400 349.600 C 55.711 349.969,55.600 350.438,55.600 352.968 C 55.600 355.663,55.517 355.963,54.600 356.563 C 53.755 357.117,53.600 357.527,53.600 359.206 C 53.600 360.760,53.426 361.302,52.800 361.693 C 52.119 362.118,52.000 362.626,52.000 365.093 C 52.000 367.560,51.881 368.068,51.200 368.493 C 50.522 368.916,50.400 369.426,50.400 371.826 C 50.400 374.332,50.284 374.769,49.400 375.600 C 48.603 376.349,48.400 376.929,48.400 378.456 C 48.400 379.962,48.229 380.463,47.600 380.800 C 46.910 381.169,46.800 381.638,46.800 384.200 C 46.800 386.762,46.690 387.231,46.000 387.600 C 45.310 387.969,45.200 388.438,45.200 391.005 C 45.200 393.739,45.118 394.035,44.200 394.637 C 43.283 395.237,43.200 395.537,43.200 398.232 C 43.200 400.762,43.089 401.231,42.400 401.600 C 41.770 401.937,41.600 402.438,41.600 403.952 C 41.600 405.368,41.389 406.067,40.800 406.600 C 40.152 407.187,40.000 407.832,40.000 410.000 C 40.000 412.168,39.848 412.813,39.200 413.400 C 38.552 413.986,38.400 414.632,38.400 416.792 C 38.400 419.121,38.273 419.580,37.400 420.400 C 36.527 421.220,36.400 421.679,36.400 424.008 C 36.400 426.168,36.248 426.814,35.600 427.400 C 35.010 427.934,34.800 428.632,34.800 430.059 C 34.800 431.560,34.621 432.105,34.000 432.493 C 33.320 432.918,33.200 433.426,33.200 435.887 C 33.200 438.533,33.114 438.838,32.200 439.437 C 31.283 440.037,31.200 440.337,31.200 443.032 C 31.200 445.562,31.089 446.031,30.400 446.400 C 29.918 446.658,29.588 447.260,29.570 447.914 C 29.523 449.563,28.599 451.800,27.964 451.800 C 27.007 451.800,26.812 452.482,26.806 455.853 C 26.800 459.370,26.950 459.579,29.500 459.595 C 30.132 459.598,30.400 459.839,30.400 460.400 C 30.400 461.046,30.667 461.200,31.786 461.200 C 32.762 461.200,33.298 461.436,33.600 462.000 C 33.835 462.440,34.361 462.800,34.767 462.800 C 35.174 462.800,35.601 463.160,35.716 463.600 C 35.876 464.212,36.262 464.400,37.355 464.400 C 38.546 464.400,38.827 464.567,39.036 465.400 C 39.250 466.252,39.517 466.400,40.843 466.400 C 42.067 466.400,42.400 466.552,42.400 467.109 C 42.400 467.781,45.331 468.800,47.266 468.800 C 47.619 468.800,48.203 469.250,48.563 469.800 C 49.016 470.492,49.581 470.800,50.395 470.800 C 51.162 470.800,51.721 471.078,52.000 471.600 C 52.272 472.108,52.838 472.400,53.549 472.400 C 54.361 472.400,55.135 472.896,56.357 474.200 C 57.551 475.474,58.360 476.000,59.126 476.000 C 59.774 476.000,60.408 476.320,60.707 476.800 C 61.024 477.307,61.640 477.600,62.389 477.600 C 63.162 477.600,63.720 477.877,64.000 478.400 C 64.264 478.894,64.843 479.203,65.514 479.208 C 66.263 479.214,67.153 479.773,68.380 481.008 C 69.633 482.270,70.487 482.800,71.266 482.800 C 71.962 482.800,72.530 483.096,72.800 483.600 C 73.069 484.102,73.638 484.400,74.327 484.400 C 75.127 484.400,75.858 484.889,77.013 486.197 C 78.122 487.453,78.913 487.995,79.638 487.997 C 80.209 487.999,81.002 488.360,81.400 488.800 C 81.798 489.240,82.547 489.600,83.065 489.600 C 83.582 489.600,84.397 490.050,84.875 490.600 C 85.377 491.178,86.178 491.602,86.772 491.604 C 87.466 491.607,88.254 492.125,89.200 493.200 C 90.147 494.277,90.933 494.793,91.630 494.796 C 92.208 494.798,93.073 495.239,93.600 495.800 C 94.132 496.367,94.988 496.800,95.574 496.800 C 96.174 496.800,96.817 497.135,97.107 497.600 C 97.402 498.072,98.040 498.400,98.663 498.400 C 99.397 498.400,100.240 498.950,101.420 500.200 C 102.585 501.433,103.447 502.000,104.157 502.000 C 104.760 502.000,105.402 502.334,105.693 502.800 C 106.013 503.313,106.626 503.600,107.400 503.600 C 108.174 503.600,108.787 503.887,109.107 504.400 C 109.416 504.894,110.040 505.200,110.738 505.200 C 111.579 505.200,112.273 505.661,113.435 506.989 C 114.564 508.280,115.305 508.781,116.097 508.789 C 116.751 508.796,117.395 509.122,117.693 509.600 C 117.993 510.081,118.626 510.400,119.278 510.400 C 120.044 510.400,120.871 510.931,122.082 512.198 C 123.299 513.473,124.120 513.997,124.897 513.998 C 125.559 513.999,126.191 514.317,126.493 514.800 C 126.796 515.285,127.426 515.600,128.093 515.600 C 128.760 515.600,129.390 515.915,129.693 516.400 C 129.993 516.881,130.626 517.200,131.278 517.200 C 132.044 517.200,132.871 517.731,134.082 518.998 C 135.299 520.273,136.120 520.797,136.897 520.798 C 137.559 520.799,138.191 521.117,138.493 521.600 C 138.783 522.065,139.426 522.400,140.026 522.400 C 140.612 522.400,141.468 522.833,142.000 523.400 C 142.678 524.121,143.357 524.400,144.437 524.400 C 147.071 524.400,147.200 524.240,147.200 520.961 C 147.200 518.440,147.317 517.934,148.000 517.507 C 148.680 517.082,148.800 516.574,148.800 514.113 C 148.800 511.467,148.886 511.162,149.800 510.563 C 150.652 510.005,150.800 509.604,150.800 507.850 C 150.800 506.226,150.968 505.687,151.600 505.293 C 152.284 504.866,152.400 504.360,152.400 501.811 C 152.400 499.238,152.510 498.769,153.200 498.400 C 153.883 498.035,154.000 497.562,154.000 495.183 C 154.000 492.707,154.112 492.297,155.000 491.525 C 155.799 490.830,156.000 490.282,156.000 488.790 C 156.000 487.432,156.218 486.727,156.800 486.200 C 157.448 485.613,157.600 484.968,157.600 482.800 C 157.600 480.632,157.752 479.987,158.400 479.400 C 159.048 478.814,159.200 478.168,159.200 476.010 C 159.200 473.665,159.320 473.240,160.200 472.475 C 161.089 471.702,161.200 471.293,161.200 468.806 C 161.200 466.440,161.324 465.929,162.000 465.507 C 162.634 465.111,162.800 464.574,162.800 462.918 C 162.800 461.238,162.957 460.744,163.600 460.400 C 164.283 460.034,164.400 459.562,164.400 457.167 C 164.400 454.689,164.517 454.254,165.400 453.435 C 166.286 452.614,166.400 452.184,166.400 449.668 C 166.400 447.238,166.515 446.766,167.200 446.400 C 167.843 446.056,168.000 445.562,168.000 443.882 C 168.000 442.226,168.166 441.689,168.800 441.293 C 169.473 440.873,169.600 440.360,169.600 438.066 C 169.600 435.675,169.723 435.224,170.600 434.400 C 171.473 433.580,171.600 433.121,171.600 430.792 C 171.600 428.632,171.752 427.986,172.400 427.400 C 173.048 426.813,173.200 426.168,173.200 424.000 C 173.200 421.832,173.352 421.187,174.000 420.600 C 174.589 420.067,174.800 419.368,174.800 417.947 C 174.800 416.331,174.962 415.912,175.800 415.363 C 176.717 414.763,176.800 414.463,176.800 411.768 C 176.800 409.238,176.911 408.769,177.600 408.400 C 178.290 408.031,178.400 407.562,178.400 405.000 C 178.400 402.438,178.510 401.969,179.200 401.600 C 179.890 401.231,180.000 400.762,180.000 398.195 C 180.000 395.461,180.082 395.165,181.000 394.563 C 181.852 394.005,182.000 393.604,182.000 391.850 C 182.000 390.226,182.168 389.687,182.800 389.293 C 183.481 388.868,183.600 388.360,183.600 385.893 C 183.600 383.426,183.719 382.918,184.400 382.493 C 185.073 382.073,185.200 381.560,185.200 379.266 C 185.200 376.875,185.323 376.424,186.200 375.600 C 186.998 374.850,187.200 374.272,187.200 372.734 C 187.200 371.240,187.380 370.694,188.000 370.307 C 188.681 369.882,188.800 369.374,188.800 366.907 C 188.800 364.440,188.919 363.932,189.600 363.507 C 190.280 363.082,190.400 362.574,190.400 360.113 C 190.400 357.467,190.486 357.162,191.400 356.563 C 192.317 355.963,192.400 355.663,192.400 352.968 C 192.400 350.438,192.511 349.969,193.200 349.600 C 193.849 349.253,194.000 348.762,194.000 347.000 C 194.000 345.238,194.151 344.747,194.800 344.400 C 195.489 344.031,195.600 343.562,195.600 341.032 C 195.600 338.337,195.683 338.037,196.600 337.437 C 197.514 336.838,197.600 336.533,197.600 333.887 C 197.600 331.426,197.720 330.918,198.400 330.493 C 199.084 330.066,199.200 329.560,199.200 327.011 C 199.200 324.438,199.310 323.969,200.000 323.600 C 200.630 323.263,200.800 322.762,200.800 321.248 C 200.800 319.832,201.011 319.133,201.600 318.600 C 202.250 318.012,202.400 317.368,202.400 315.167 C 202.400 312.754,202.509 312.372,203.400 311.671 C 204.299 310.964,204.400 310.598,204.400 308.046 C 204.400 305.640,204.522 305.131,205.200 304.707 C 205.835 304.311,206.000 303.774,206.000 302.107 C 206.000 300.440,206.165 299.904,206.800 299.507 C 207.480 299.082,207.600 298.574,207.600 296.113 C 207.600 293.467,207.686 293.162,208.600 292.563 C 209.517 291.963,209.600 291.663,209.600 288.968 C 209.600 286.438,209.711 285.969,210.400 285.600 C 211.090 285.231,211.200 284.762,211.200 282.189 C 211.200 279.640,211.316 279.134,212.000 278.707 C 212.611 278.326,212.800 277.774,212.800 276.374 C 212.800 274.934,213.015 274.337,213.800 273.600 C 214.673 272.780,214.800 272.321,214.800 269.992 C 214.800 267.832,214.952 267.186,215.600 266.600 C 216.252 266.010,216.400 265.368,216.400 263.134 C 216.400 260.887,216.544 260.269,217.200 259.707 C 217.850 259.151,218.000 258.527,218.000 256.381 C 218.000 254.081,218.129 253.618,219.000 252.800 C 219.798 252.050,220.000 251.472,220.000 249.934 C 220.000 248.440,220.180 247.894,220.800 247.507 C 221.481 247.082,221.600 246.574,221.600 244.107 C 221.600 241.640,221.719 241.132,222.400 240.707 C 223.078 240.284,223.200 239.774,223.200 237.376 C 223.200 234.854,223.309 234.449,224.200 233.675 C 225.005 232.975,225.200 232.434,225.200 230.899 C 225.200 229.426,225.382 228.879,226.000 228.493 C 226.676 228.071,226.800 227.560,226.800 225.193 C 226.800 222.887,226.941 222.271,227.600 221.707 C 228.254 221.147,228.400 220.527,228.400 218.308 C 228.400 215.912,228.517 215.493,229.400 214.725 C 230.291 213.951,230.400 213.546,230.400 211.024 C 230.400 208.626,230.522 208.116,231.200 207.693 C 231.826 207.302,232.000 206.760,232.000 205.200 C 232.000 203.640,232.174 203.098,232.800 202.707 C 233.478 202.284,233.600 201.774,233.600 199.376 C 233.600 196.854,233.709 196.449,234.600 195.675 C 235.489 194.902,235.600 194.493,235.600 192.006 C 235.600 189.640,235.724 189.129,236.400 188.707 C 237.034 188.311,237.200 187.774,237.200 186.118 C 237.200 184.438,237.357 183.944,238.000 183.600 C 238.689 183.231,238.800 182.762,238.800 180.232 C 238.800 177.537,238.883 177.237,239.800 176.637 C 240.718 176.035,240.800 175.739,240.800 173.005 C 240.800 170.438,240.910 169.969,241.600 169.600 C 242.283 169.235,242.400 168.762,242.400 166.382 C 242.400 164.087,242.542 163.471,243.200 162.907 C 243.793 162.399,244.000 161.727,244.000 160.308 C 244.000 158.766,244.194 158.226,245.000 157.525 C 245.884 156.757,246.000 156.339,246.000 153.931 C 246.000 151.640,246.127 151.127,246.800 150.707 C 247.481 150.282,247.600 149.774,247.600 147.307 C 247.600 144.840,247.719 144.332,248.400 143.907 C 249.078 143.484,249.200 142.974,249.200 140.574 C 249.200 138.068,249.316 137.631,250.200 136.800 C 250.998 136.050,251.200 135.472,251.200 133.934 C 251.200 132.440,251.380 131.894,252.000 131.507 C 252.681 131.082,252.800 130.574,252.800 128.107 C 252.800 125.640,252.919 125.132,253.600 124.707 C 254.206 124.329,254.401 123.770,254.406 122.404 C 254.409 121.412,254.583 120.330,254.792 120.000 C 255.124 119.474,261.387 119.375,305.885 119.200 L 356.600 119.000 356.725 117.701 C 356.801 116.917,357.158 116.237,357.625 115.986 C 358.285 115.633,358.400 115.130,358.400 112.600 C 358.400 110.038,358.510 109.569,359.200 109.200 C 359.890 108.831,360.000 108.362,360.000 105.795 C 360.000 103.061,360.082 102.765,361.000 102.163 C 361.917 101.563,362.000 101.263,362.000 98.568 C 362.000 96.038,362.111 95.569,362.800 95.200 C 363.435 94.860,363.600 94.362,363.600 92.782 C 363.600 91.287,363.799 90.622,364.400 90.107 C 365.050 89.551,365.200 88.927,365.200 86.781 C 365.200 84.481,365.329 84.018,366.200 83.200 C 367.077 82.376,367.200 81.925,367.200 79.534 C 367.200 77.240,367.327 76.727,368.000 76.307 C 368.678 75.884,368.800 75.374,368.800 72.966 C 368.800 70.632,368.943 69.995,369.600 69.400 C 370.182 68.873,370.400 68.168,370.400 66.810 C 370.400 65.318,370.601 64.770,371.400 64.075 C 372.289 63.302,372.400 62.893,372.400 60.406 C 372.400 58.040,372.524 57.529,373.200 57.107 C 373.881 56.682,374.000 56.174,374.000 53.707 C 374.000 51.240,374.119 50.732,374.800 50.307 C 375.480 49.882,375.600 49.374,375.600 46.913 C 375.600 44.267,375.686 43.962,376.600 43.363 C 377.433 42.817,377.600 42.393,377.600 40.816 C 377.600 39.465,377.817 38.727,378.360 38.236 C 378.779 37.857,379.219 36.884,379.338 36.074 C 379.799 32.941,380.100 32.067,380.779 31.889 C 381.568 31.683,382.000 30.040,382.000 27.246 C 382.000 25.826,382.187 25.276,382.800 24.893 C 383.513 24.447,383.600 23.960,383.600 20.397 L 383.600 16.400 373.100 16.425 C 365.876 16.443,362.288 16.599,361.600 16.925 " stroke="none" fill="#fcfcfc" fill-rule="evenodd"></path><path id="path1" d="M25.200 2.200 C 25.200 4.088,25.093 4.400,24.447 4.400 C 23.581 4.400,23.213 5.429,23.205 7.880 C 23.202 9.052,22.991 9.677,22.509 9.947 C 21.975 10.246,21.784 11.015,21.666 13.353 C 21.538 15.887,21.392 16.412,20.757 16.614 C 20.097 16.823,20.000 17.266,20.000 20.064 C 20.000 22.878,19.906 23.299,19.243 23.473 C 18.369 23.701,18.000 25.119,18.000 28.250 C 18.000 30.133,17.901 30.400,17.200 30.400 C 16.482 30.400,16.400 30.667,16.400 33.000 C 16.400 35.067,16.236 35.764,15.600 36.400 C 14.967 37.033,14.800 37.733,14.800 39.753 C 14.800 41.927,14.687 42.336,14.039 42.506 C 13.406 42.671,13.227 43.236,12.983 45.852 C 12.759 48.244,12.510 49.126,11.944 49.523 C 11.325 49.958,11.200 50.579,11.200 53.223 C 11.200 56.133,11.133 56.400,10.400 56.400 C 9.685 56.400,9.600 56.667,9.600 58.911 C 9.600 60.927,9.442 61.557,8.800 62.107 C 8.169 62.648,8.000 63.287,8.000 65.138 C 8.000 67.085,7.830 67.666,7.000 68.562 C 6.136 69.494,6.000 70.013,6.000 72.374 C 6.000 74.770,5.902 75.132,5.200 75.316 C 4.478 75.505,4.400 75.862,4.400 78.963 C 4.400 82.133,4.338 82.400,3.600 82.400 C 2.890 82.400,2.800 82.667,2.800 84.782 C 2.800 86.789,2.643 87.321,1.800 88.164 C 0.937 89.027,0.800 89.522,0.800 91.782 C 0.800 93.261,0.626 94.400,0.400 94.400 C 0.159 94.400,0.000 96.067,0.000 98.600 L 0.000 102.800 10.200 102.800 C 16.488 102.800,20.400 102.652,20.400 102.414 C 20.400 102.202,20.940 101.413,21.600 100.661 C 22.685 99.426,22.800 99.030,22.800 96.543 C 22.800 94.226,22.926 93.714,23.600 93.293 C 24.281 92.868,24.400 92.360,24.400 89.893 C 24.400 87.426,24.519 86.918,25.200 86.493 C 25.878 86.069,26.000 85.560,26.000 83.154 C 26.000 80.602,26.101 80.236,27.000 79.529 C 27.814 78.889,28.000 78.391,28.000 76.860 C 28.000 75.473,28.210 74.798,28.800 74.293 C 29.459 73.729,29.600 73.113,29.600 70.807 C 29.600 68.440,29.724 67.929,30.400 67.507 C 31.080 67.082,31.200 66.574,31.200 64.113 C 31.200 61.467,31.286 61.162,32.200 60.563 C 33.113 59.965,33.200 59.658,33.200 57.043 C 33.200 54.673,33.338 54.059,34.000 53.493 C 34.601 52.978,34.800 52.313,34.800 50.818 C 34.800 49.238,34.965 48.740,35.600 48.400 C 36.289 48.031,36.400 47.562,36.400 45.032 C 36.400 42.337,36.483 42.037,37.400 41.437 C 38.314 40.838,38.400 40.533,38.400 37.887 C 38.400 35.426,38.520 34.918,39.200 34.493 C 39.884 34.066,40.000 33.560,40.000 31.011 C 40.000 28.438,40.110 27.969,40.800 27.600 C 41.430 27.263,41.600 26.762,41.600 25.248 C 41.600 23.848,41.813 23.132,42.381 22.618 C 42.920 22.129,43.198 21.276,43.281 19.856 L 43.400 17.800 202.000 17.600 C 371.359 17.386,362.800 17.501,362.800 15.457 C 362.800 14.830,363.079 14.420,363.600 14.284 C 364.317 14.097,364.400 13.738,364.400 10.837 C 364.400 7.933,364.478 7.600,365.153 7.600 C 366.114 7.600,366.388 6.562,366.395 2.900 L 366.400 0.000 195.800 0.000 L 25.200 0.000 25.200 2.200 M90.800 137.399 L 89.400 137.903 89.284 141.151 C 89.179 144.071,89.088 144.400,88.384 144.400 C 87.680 144.400,87.600 144.686,87.600 147.200 C 87.600 149.442,87.479 150.000,86.990 150.000 C 86.129 150.000,85.600 151.665,85.600 154.379 C 85.600 156.370,85.484 156.737,84.800 156.916 C 84.083 157.103,84.000 157.462,84.000 160.363 C 84.000 163.333,83.934 163.600,83.200 163.600 C 82.463 163.600,82.400 163.867,82.400 166.972 C 82.400 170.165,82.352 170.351,81.500 170.472 C 80.699 170.586,80.587 170.860,80.478 172.978 C 80.385 174.789,80.170 175.486,79.578 175.901 C 78.918 176.362,78.800 176.929,78.800 179.623 C 78.800 182.533,78.733 182.800,78.000 182.800 C 77.263 182.800,77.200 183.067,77.200 186.172 C 77.200 189.365,77.152 189.551,76.300 189.672 C 75.491 189.787,75.388 190.054,75.280 192.320 C 75.192 194.172,74.954 195.046,74.380 195.620 C 73.768 196.232,73.600 196.955,73.600 198.973 C 73.600 201.195,73.491 201.581,72.800 201.800 C 72.089 202.026,72.000 202.405,72.000 205.227 C 72.000 207.747,71.879 208.400,71.414 208.400 C 70.448 208.400,70.000 209.786,70.000 212.774 C 70.000 215.333,69.925 215.600,69.200 215.600 C 68.482 215.600,68.400 215.867,68.400 218.200 C 68.400 220.156,68.262 220.800,67.843 220.800 C 67.036 220.800,66.800 221.712,66.800 224.833 C 66.800 227.272,66.711 227.600,66.050 227.600 C 65.176 227.600,64.800 228.984,64.800 232.203 C 64.800 233.970,64.672 234.340,64.000 234.516 C 63.278 234.705,63.200 235.062,63.200 238.163 C 63.200 241.333,63.138 241.600,62.400 241.600 C 61.682 241.600,61.600 241.867,61.600 244.200 C 61.600 246.263,61.474 246.800,60.990 246.800 C 60.129 246.800,59.600 248.465,59.600 251.179 C 59.600 253.170,59.484 253.537,58.800 253.716 C 58.083 253.903,58.000 254.262,58.000 257.163 C 58.000 260.133,57.934 260.400,57.200 260.400 C 56.481 260.400,56.400 260.667,56.400 263.036 C 56.400 265.273,56.266 265.780,55.516 266.388 C 54.789 266.976,54.603 267.611,54.471 269.952 C 54.360 271.916,54.151 272.800,53.798 272.800 C 53.037 272.800,52.800 273.757,52.800 276.833 C 52.800 279.333,52.723 279.600,52.000 279.600 C 51.263 279.600,51.200 279.867,51.200 283.000 C 51.200 286.069,51.126 286.400,50.443 286.400 C 49.489 286.400,49.200 287.151,49.200 289.633 C 49.200 291.067,48.983 291.817,48.400 292.400 C 47.766 293.034,47.600 293.733,47.600 295.773 C 47.600 297.995,47.491 298.381,46.800 298.600 C 46.083 298.827,46.000 299.205,46.000 302.227 C 46.000 305.264,45.925 305.600,45.247 305.600 C 44.312 305.600,44.013 306.637,44.005 309.900 C 44.001 312.132,43.914 312.400,43.200 312.400 C 42.485 312.400,42.400 312.667,42.400 314.904 C 42.400 316.974,42.262 317.494,41.600 317.907 C 40.917 318.333,40.800 318.840,40.800 321.357 C 40.800 323.890,40.695 324.334,40.061 324.500 C 39.217 324.721,38.800 326.304,38.800 329.287 C 38.800 330.938,38.665 331.310,38.000 331.484 C 37.280 331.672,37.200 332.030,37.200 335.047 C 37.200 338.133,37.136 338.400,36.400 338.400 C 35.684 338.400,35.600 338.667,35.600 340.953 C 35.600 343.100,35.482 343.537,34.861 343.700 C 34.024 343.919,33.600 345.502,33.600 348.403 C 33.600 349.970,33.459 350.344,32.800 350.516 C 32.084 350.703,32.000 351.062,32.000 353.916 C 32.000 356.770,31.916 357.129,31.200 357.316 C 30.502 357.498,30.400 357.862,30.400 360.163 C 30.400 361.740,30.231 362.800,29.980 362.800 C 29.276 362.800,28.400 365.455,28.400 367.587 C 28.400 369.041,28.245 369.600,27.843 369.600 C 27.036 369.600,26.800 370.512,26.800 373.633 C 26.800 376.133,26.723 376.400,26.000 376.400 C 25.263 376.400,25.200 376.667,25.200 379.800 C 25.200 382.858,25.125 383.200,24.450 383.200 C 23.623 383.200,23.200 384.572,23.200 387.250 C 23.200 388.298,23.022 388.800,22.650 388.800 C 21.990 388.800,21.600 390.526,21.600 393.450 C 21.600 395.333,21.501 395.600,20.800 395.600 C 20.063 395.600,20.000 395.867,20.000 399.000 C 20.000 402.054,19.924 402.400,19.252 402.400 C 18.421 402.400,18.012 403.988,18.004 407.253 C 18.001 408.768,17.854 409.145,17.200 409.316 C 16.504 409.498,16.400 409.862,16.400 412.116 C 16.400 414.370,16.296 414.734,15.600 414.916 C 14.888 415.102,14.800 415.462,14.800 418.200 C 14.800 420.868,14.701 421.301,14.052 421.471 C 13.298 421.668,12.812 423.859,12.803 427.100 C 12.801 428.132,12.635 428.400,12.000 428.400 C 11.282 428.400,11.200 428.667,11.200 431.000 C 11.200 433.067,11.036 433.764,10.400 434.400 C 9.725 435.075,9.600 435.733,9.600 438.600 L 9.600 442.000 11.372 442.000 C 12.905 442.000,13.162 442.121,13.272 442.900 C 13.371 443.597,13.703 443.829,14.745 443.929 C 15.671 444.017,16.153 444.298,16.292 444.829 C 16.420 445.318,16.842 445.600,17.447 445.600 C 18.133 445.600,18.400 445.824,18.400 446.400 C 18.400 447.067,18.667 447.200,20.000 447.200 C 21.303 447.200,21.600 447.340,21.600 447.957 C 21.600 448.819,22.345 449.200,24.033 449.200 C 24.933 449.200,25.200 449.383,25.200 450.000 C 25.200 450.577,25.467 450.800,26.157 450.800 C 26.684 450.800,27.224 451.085,27.357 451.433 C 27.933 452.934,29.499 450.444,29.570 447.914 C 29.588 447.260,29.918 446.658,30.400 446.400 C 31.089 446.031,31.200 445.562,31.200 443.032 C 31.200 440.337,31.283 440.037,32.200 439.437 C 33.114 438.838,33.200 438.533,33.200 435.887 C 33.200 433.426,33.320 432.918,34.000 432.493 C 34.621 432.105,34.800 431.560,34.800 430.059 C 34.800 428.632,35.010 427.934,35.600 427.400 C 36.248 426.814,36.400 426.168,36.400 424.008 C 36.400 421.679,36.527 421.220,37.400 420.400 C 38.273 419.580,38.400 419.121,38.400 416.792 C 38.400 414.632,38.552 413.986,39.200 413.400 C 39.848 412.813,40.000 412.168,40.000 410.000 C 40.000 407.832,40.152 407.187,40.800 406.600 C 41.389 406.067,41.600 405.368,41.600 403.952 C 41.600 402.438,41.770 401.937,42.400 401.600 C 43.089 401.231,43.200 400.762,43.200 398.232 C 43.200 395.537,43.283 395.237,44.200 394.637 C 45.118 394.035,45.200 393.739,45.200 391.005 C 45.200 388.438,45.310 387.969,46.000 387.600 C 46.690 387.231,46.800 386.762,46.800 384.200 C 46.800 381.638,46.910 381.169,47.600 380.800 C 48.229 380.463,48.400 379.962,48.400 378.456 C 48.400 376.929,48.603 376.349,49.400 375.600 C 50.284 374.769,50.400 374.332,50.400 371.826 C 50.400 369.426,50.522 368.916,51.200 368.493 C 51.881 368.068,52.000 367.560,52.000 365.093 C 52.000 362.626,52.119 362.118,52.800 361.693 C 53.426 361.302,53.600 360.760,53.600 359.206 C 53.600 357.527,53.755 357.117,54.600 356.563 C 55.517 355.963,55.600 355.663,55.600 352.968 C 55.600 350.438,55.711 349.969,56.400 349.600 C 57.090 349.231,57.200 348.762,57.200 346.200 C 57.200 343.638,57.310 343.169,58.000 342.800 C 58.690 342.431,58.800 341.962,58.800 339.395 C 58.800 336.661,58.882 336.365,59.800 335.763 C 60.652 335.205,60.800 334.804,60.800 333.050 C 60.800 331.426,60.968 330.887,61.600 330.493 C 62.284 330.066,62.400 329.560,62.400 327.011 C 62.400 324.438,62.510 323.969,63.200 323.600 C 63.883 323.235,64.000 322.762,64.000 320.383 C 64.000 317.907,64.112 317.497,65.000 316.725 C 65.891 315.951,66.000 315.546,66.000 313.024 C 66.000 310.626,66.122 310.116,66.800 309.693 C 67.426 309.302,67.600 308.760,67.600 307.200 C 67.600 305.640,67.774 305.098,68.400 304.707 C 69.078 304.284,69.200 303.774,69.200 301.376 C 69.200 298.854,69.309 298.449,70.200 297.675 C 71.089 296.902,71.200 296.493,71.200 294.006 C 71.200 291.640,71.324 291.129,72.000 290.707 C 72.681 290.282,72.800 289.774,72.800 287.307 C 72.800 284.840,72.919 284.332,73.600 283.907 C 74.232 283.513,74.400 282.974,74.400 281.350 C 74.400 279.596,74.548 279.195,75.400 278.637 C 76.318 278.035,76.400 277.739,76.400 275.005 C 76.400 272.438,76.510 271.969,77.200 271.600 C 77.890 271.231,78.000 270.762,78.000 268.200 C 78.000 265.638,78.110 265.169,78.800 264.800 C 79.435 264.460,79.600 263.962,79.600 262.383 C 79.600 260.761,79.784 260.235,80.600 259.525 C 81.480 258.760,81.600 258.335,81.600 255.990 C 81.600 253.832,81.752 253.186,82.400 252.600 C 83.048 252.013,83.200 251.368,83.200 249.200 C 83.200 247.032,83.352 246.387,84.000 245.800 C 84.648 245.214,84.800 244.568,84.800 242.408 C 84.800 240.079,84.927 239.620,85.800 238.800 C 86.597 238.051,86.800 237.471,86.800 235.944 C 86.800 234.438,86.971 233.937,87.600 233.600 C 88.290 233.231,88.400 232.762,88.400 230.189 C 88.400 227.640,88.516 227.134,89.200 226.707 C 89.874 226.286,90.000 225.774,90.000 223.450 C 90.000 221.022,90.120 220.581,91.000 219.765 C 91.878 218.951,92.000 218.506,92.000 216.108 C 92.000 213.873,92.145 213.254,92.800 212.693 C 93.392 212.186,93.600 211.513,93.600 210.100 C 93.600 208.626,93.782 208.079,94.400 207.693 C 95.076 207.271,95.200 206.760,95.200 204.394 C 95.200 201.907,95.311 201.498,96.200 200.725 C 97.080 199.960,97.200 199.535,97.200 197.190 C 97.200 195.032,97.352 194.386,98.000 193.800 C 98.590 193.266,98.800 192.568,98.800 191.141 C 98.800 189.640,98.979 189.095,99.600 188.707 C 100.278 188.284,100.400 187.774,100.400 185.376 C 100.400 182.854,100.509 182.449,101.400 181.675 C 102.283 180.907,102.400 180.488,102.400 178.092 C 102.400 175.873,102.546 175.253,103.200 174.693 C 103.859 174.129,104.000 173.513,104.000 171.207 C 104.000 168.840,104.124 168.329,104.800 167.907 C 105.418 167.521,105.600 166.974,105.600 165.501 C 105.600 163.966,105.795 163.425,106.600 162.725 C 107.491 161.951,107.600 161.546,107.600 159.024 C 107.600 156.626,107.722 156.116,108.400 155.693 C 109.081 155.268,109.200 154.760,109.200 152.293 C 109.200 149.826,109.319 149.318,110.000 148.893 C 110.676 148.471,110.800 147.960,110.800 145.594 C 110.800 143.107,110.911 142.698,111.800 141.925 C 112.906 140.963,113.218 138.178,112.320 137.280 C 111.634 136.594,92.747 136.699,90.800 137.399 " stroke="none" fill="#04fcfc" fill-rule="evenodd"></path><path id="path2" d="M379.614 34.374 C 379.386 34.799,379.200 35.671,379.200 36.312 C 379.200 36.968,378.851 37.792,378.400 38.200 C 377.815 38.730,377.600 39.432,377.600 40.816 C 377.600 42.393,377.433 42.817,376.600 43.363 C 375.686 43.962,375.600 44.267,375.600 46.913 C 375.600 49.374,375.480 49.882,374.800 50.307 C 374.119 50.732,374.000 51.240,374.000 53.707 C 374.000 56.174,373.881 56.682,373.200 57.107 C 372.524 57.529,372.400 58.040,372.400 60.406 C 372.400 62.893,372.289 63.302,371.400 64.075 C 370.601 64.770,370.400 65.318,370.400 66.810 C 370.400 68.168,370.182 68.873,369.600 69.400 C 368.943 69.995,368.800 70.632,368.800 72.966 C 368.800 75.374,368.678 75.884,368.000 76.307 C 367.327 76.727,367.200 77.240,367.200 79.534 C 367.200 81.925,367.077 82.376,366.200 83.200 C 365.329 84.018,365.200 84.481,365.200 86.781 C 365.200 88.927,365.050 89.551,364.400 90.107 C 363.799 90.622,363.600 91.287,363.600 92.782 C 363.600 94.362,363.435 94.860,362.800 95.200 C 362.111 95.569,362.000 96.038,362.000 98.568 C 362.000 101.263,361.917 101.563,361.000 102.163 C 360.082 102.765,360.000 103.061,360.000 105.795 C 360.000 108.362,359.890 108.831,359.200 109.200 C 358.510 109.569,358.400 110.038,358.400 112.600 C 358.400 115.130,358.285 115.633,357.625 115.986 C 357.158 116.237,356.801 116.917,356.725 117.701 L 356.600 119.000 305.885 119.200 C 261.387 119.375,255.124 119.474,254.792 120.000 C 254.583 120.330,254.409 121.412,254.406 122.404 C 254.401 123.770,254.206 124.329,253.600 124.707 C 252.919 125.132,252.800 125.640,252.800 128.107 C 252.800 130.574,252.681 131.082,252.000 131.507 C 251.380 131.894,251.200 132.440,251.200 133.934 C 251.200 135.472,250.998 136.050,250.200 136.800 C 249.316 137.631,249.200 138.068,249.200 140.574 C 249.200 142.974,249.078 143.484,248.400 143.907 C 247.719 144.332,247.600 144.840,247.600 147.307 C 247.600 149.774,247.481 150.282,246.800 150.707 C 246.127 151.127,246.000 151.640,246.000 153.931 C 246.000 156.339,245.884 156.757,245.000 157.525 C 244.194 158.226,244.000 158.766,244.000 160.308 C 244.000 161.727,243.793 162.399,243.200 162.907 C 242.542 163.471,242.400 164.087,242.400 166.382 C 242.400 168.762,242.283 169.235,241.600 169.600 C 240.910 169.969,240.800 170.438,240.800 173.005 C 240.800 175.739,240.718 176.035,239.800 176.637 C 238.883 177.237,238.800 177.537,238.800 180.232 C 238.800 182.762,238.689 183.231,238.000 183.600 C 237.357 183.944,237.200 184.438,237.200 186.118 C 237.200 187.774,237.034 188.311,236.400 188.707 C 235.724 189.129,235.600 189.640,235.600 192.006 C 235.600 194.493,235.489 194.902,234.600 195.675 C 233.709 196.449,233.600 196.854,233.600 199.376 C 233.600 201.774,233.478 202.284,232.800 202.707 C 232.174 203.098,232.000 203.640,232.000 205.200 C 232.000 206.760,231.826 207.302,231.200 207.693 C 230.522 208.116,230.400 208.626,230.400 211.024 C 230.400 213.546,230.291 213.951,229.400 214.725 C 228.517 215.493,228.400 215.912,228.400 218.308 C 228.400 220.527,228.254 221.147,227.600 221.707 C 226.941 222.271,226.800 222.887,226.800 225.193 C 226.800 227.560,226.676 228.071,226.000 228.493 C 225.382 228.879,225.200 229.426,225.200 230.899 C 225.200 232.434,225.005 232.975,224.200 233.675 C 223.309 234.449,223.200 234.854,223.200 237.376 C 223.200 239.774,223.078 240.284,222.400 240.707 C 221.719 241.132,221.600 241.640,221.600 244.107 C 221.600 246.574,221.481 247.082,220.800 247.507 C 220.180 247.894,220.000 248.440,220.000 249.934 C 220.000 251.472,219.798 252.050,219.000 252.800 C 218.129 253.618,218.000 254.081,218.000 256.381 C 218.000 258.527,217.850 259.151,217.200 259.707 C 216.544 260.269,216.400 260.887,216.400 263.134 C 216.400 265.368,216.252 266.010,215.600 266.600 C 214.952 267.186,214.800 267.832,214.800 269.992 C 214.800 272.321,214.673 272.780,213.800 273.600 C 213.015 274.337,212.800 274.934,212.800 276.374 C 212.800 277.774,212.611 278.326,212.000 278.707 C 211.316 279.134,211.200 279.640,211.200 282.189 C 211.200 284.762,211.090 285.231,210.400 285.600 C 209.711 285.969,209.600 286.438,209.600 288.968 C 209.600 291.663,209.517 291.963,208.600 292.563 C 207.686 293.162,207.600 293.467,207.600 296.113 C 207.600 298.574,207.480 299.082,206.800 299.507 C 206.165 299.904,206.000 300.440,206.000 302.107 C 206.000 303.774,205.835 304.311,205.200 304.707 C 204.522 305.131,204.400 305.640,204.400 308.046 C 204.400 310.598,204.299 310.964,203.400 311.671 C 202.509 312.372,202.400 312.754,202.400 315.167 C 202.400 317.368,202.250 318.012,201.600 318.600 C 201.011 319.133,200.800 319.832,200.800 321.248 C 200.800 322.762,200.630 323.263,200.000 323.600 C 199.310 323.969,199.200 324.438,199.200 327.011 C 199.200 329.560,199.084 330.066,198.400 330.493 C 197.720 330.918,197.600 331.426,197.600 333.887 C 197.600 336.533,197.514 336.838,196.600 337.437 C 195.683 338.037,195.600 338.337,195.600 341.032 C 195.600 343.562,195.489 344.031,194.800 344.400 C 194.151 344.747,194.000 345.238,194.000 347.000 C 194.000 348.762,193.849 349.253,193.200 349.600 C 192.511 349.969,192.400 350.438,192.400 352.968 C 192.400 355.663,192.317 355.963,191.400 356.563 C 190.486 357.162,190.400 357.467,190.400 360.113 C 190.400 362.574,190.280 363.082,189.600 363.507 C 188.919 363.932,188.800 364.440,188.800 366.907 C 188.800 369.374,188.681 369.882,188.000 370.307 C 187.380 370.694,187.200 371.240,187.200 372.734 C 187.200 374.272,186.998 374.850,186.200 375.600 C 185.323 376.424,185.200 376.875,185.200 379.266 C 185.200 381.560,185.073 382.073,184.400 382.493 C 183.719 382.918,183.600 383.426,183.600 385.893 C 183.600 388.360,183.481 388.868,182.800 389.293 C 182.168 389.687,182.000 390.226,182.000 391.850 C 182.000 393.604,181.852 394.005,181.000 394.563 C 180.082 395.165,180.000 395.461,180.000 398.195 C 180.000 400.762,179.890 401.231,179.200 401.600 C 178.510 401.969,178.400 402.438,178.400 405.000 C 178.400 407.562,178.290 408.031,177.600 408.400 C 176.911 408.769,176.800 409.238,176.800 411.768 C 176.800 414.463,176.717 414.763,175.800 415.363 C 174.962 415.912,174.800 416.331,174.800 417.947 C 174.800 419.368,174.589 420.067,174.000 420.600 C 173.352 421.187,173.200 421.832,173.200 424.000 C 173.200 426.168,173.048 426.813,172.400 427.400 C 171.752 427.986,171.600 428.632,171.600 430.792 C 171.600 433.121,171.473 433.580,170.600 434.400 C 169.723 435.224,169.600 435.675,169.600 438.066 C 169.600 440.360,169.473 440.873,168.800 441.293 C 168.166 441.689,168.000 442.226,168.000 443.882 C 168.000 445.562,167.843 446.056,167.200 446.400 C 166.515 446.766,166.400 447.238,166.400 449.668 C 166.400 452.184,166.286 452.614,165.400 453.435 C 164.517 454.254,164.400 454.689,164.400 457.167 C 164.400 459.562,164.283 460.034,163.600 460.400 C 162.957 460.744,162.800 461.238,162.800 462.918 C 162.800 464.574,162.634 465.111,162.000 465.507 C 161.324 465.929,161.200 466.440,161.200 468.806 C 161.200 471.293,161.089 471.702,160.200 472.475 C 159.320 473.240,159.200 473.665,159.200 476.010 C 159.200 478.168,159.048 478.814,158.400 479.400 C 157.752 479.987,157.600 480.632,157.600 482.800 C 157.600 484.968,157.448 485.613,156.800 486.200 C 156.218 486.727,156.000 487.432,156.000 488.790 C 156.000 490.282,155.799 490.830,155.000 491.525 C 154.112 492.297,154.000 492.707,154.000 495.183 C 154.000 497.562,153.883 498.035,153.200 498.400 C 152.510 498.769,152.400 499.238,152.400 501.811 C 152.400 504.360,152.284 504.866,151.600 505.293 C 150.968 505.687,150.800 506.226,150.800 507.850 C 150.800 509.604,150.652 510.005,149.800 510.563 C 148.886 511.162,148.800 511.467,148.800 514.113 C 148.800 516.574,148.680 517.082,148.000 517.507 C 147.317 517.934,147.200 518.440,147.200 520.961 C 147.200 524.240,147.071 524.400,144.437 524.400 C 143.357 524.400,142.678 524.121,142.000 523.400 C 141.468 522.833,140.612 522.400,140.026 522.400 C 139.426 522.400,138.783 522.065,138.493 521.600 C 138.191 521.117,137.559 520.799,136.897 520.798 C 136.120 520.797,135.299 520.273,134.082 518.998 C 132.871 517.731,132.044 517.200,131.278 517.200 C 130.626 517.200,129.993 516.881,129.693 516.400 C 129.390 515.915,128.760 515.600,128.093 515.600 C 127.426 515.600,126.796 515.285,126.493 514.800 C 126.191 514.317,125.559 513.999,124.897 513.998 C 124.120 513.997,123.299 513.473,122.082 512.198 C 120.871 510.931,120.044 510.400,119.278 510.400 C 118.626 510.400,117.993 510.081,117.693 509.600 C 117.395 509.122,116.751 508.796,116.097 508.789 C 115.305 508.781,114.564 508.280,113.435 506.989 C 112.273 505.661,111.579 505.200,110.738 505.200 C 110.040 505.200,109.416 504.894,109.107 504.400 C 108.787 503.887,108.174 503.600,107.400 503.600 C 106.626 503.600,106.013 503.313,105.693 502.800 C 105.402 502.334,104.760 502.000,104.157 502.000 C 103.447 502.000,102.585 501.433,101.420 500.200 C 100.240 498.950,99.397 498.400,98.663 498.400 C 98.040 498.400,97.402 498.072,97.107 497.600 C 96.817 497.135,96.174 496.800,95.574 496.800 C 94.988 496.800,94.132 496.367,93.600 495.800 C 93.073 495.239,92.208 494.798,91.630 494.796 C 90.933 494.793,90.147 494.277,89.200 493.200 C 88.254 492.125,87.466 491.607,86.772 491.604 C 86.178 491.602,85.377 491.178,84.875 490.600 C 84.397 490.050,83.582 489.600,83.065 489.600 C 82.547 489.600,81.798 489.240,81.400 488.800 C 81.002 488.360,80.209 487.999,79.638 487.997 C 78.913 487.995,78.122 487.453,77.013 486.197 C 75.858 484.889,75.127 484.400,74.327 484.400 C 73.638 484.400,73.069 484.102,72.800 483.600 C 72.530 483.096,71.962 482.800,71.266 482.800 C 70.487 482.800,69.633 482.270,68.380 481.008 C 67.153 479.773,66.263 479.214,65.514 479.208 C 64.843 479.203,64.264 478.894,64.000 478.400 C 63.720 477.877,63.162 477.600,62.389 477.600 C 61.640 477.600,61.024 477.307,60.707 476.800 C 60.408 476.320,59.774 476.000,59.126 476.000 C 58.360 476.000,57.551 475.474,56.357 474.200 C 55.135 472.896,54.361 472.400,53.549 472.400 C 52.838 472.400,52.272 472.108,52.000 471.600 C 51.724 471.084,51.162 470.800,50.419 470.800 C 49.677 470.800,49.005 470.461,48.533 469.848 C 48.059 469.232,47.218 468.809,46.152 468.651 L 44.504 468.407 44.256 469.904 C 43.501 474.472,44.154 476.800,46.190 476.800 C 47.333 476.800,47.600 476.951,47.600 477.600 C 47.600 478.247,47.867 478.400,48.997 478.400 C 49.960 478.400,50.548 478.648,50.893 479.200 C 51.168 479.640,51.709 480.000,52.096 480.000 C 52.483 480.000,52.800 480.264,52.800 480.586 C 52.800 481.323,54.032 482.000,55.374 482.000 C 56.133 482.000,56.400 482.208,56.400 482.800 C 56.400 483.463,56.667 483.600,57.953 483.600 C 59.170 483.600,59.552 483.773,59.716 484.400 C 59.854 484.928,60.262 485.200,60.916 485.200 C 61.571 485.200,61.978 485.472,62.117 486.003 C 62.250 486.514,62.794 486.899,63.617 487.063 C 64.392 487.218,64.984 487.616,65.100 488.061 C 65.246 488.620,65.672 488.800,66.847 488.800 C 68.133 488.800,68.400 488.937,68.400 489.600 C 68.400 490.281,68.667 490.400,70.200 490.400 C 71.853 490.400,72.000 490.481,72.000 491.400 C 72.000 492.092,72.219 492.400,72.711 492.400 C 73.102 492.400,73.730 492.760,74.107 493.200 C 74.511 493.671,75.287 494.000,75.996 494.000 C 76.933 494.000,77.200 494.177,77.200 494.800 C 77.200 495.464,77.467 495.600,78.772 495.600 C 80.098 495.600,80.364 495.741,80.472 496.500 C 80.578 497.248,80.887 497.421,82.300 497.523 C 83.674 497.622,84.000 497.795,84.000 498.423 C 84.000 498.975,84.276 499.200,84.953 499.200 C 85.570 499.200,85.981 499.482,86.116 500.000 C 86.276 500.613,86.662 500.800,87.763 500.800 C 88.906 500.800,89.200 500.955,89.200 501.557 C 89.200 502.419,89.945 502.800,91.633 502.800 C 92.533 502.800,92.800 502.983,92.800 503.600 C 92.800 504.252,93.067 504.400,94.237 504.400 C 95.338 504.400,95.724 504.587,95.884 505.200 C 96.019 505.718,96.430 506.000,97.047 506.000 C 97.719 506.000,98.000 506.226,98.000 506.765 C 98.000 507.342,98.383 507.594,99.561 507.793 C 100.630 507.974,101.185 508.300,101.323 508.829 C 101.481 509.432,101.882 509.600,103.163 509.600 C 104.533 509.600,104.800 509.730,104.800 510.400 C 104.800 510.987,105.067 511.200,105.800 511.200 C 106.369 511.200,106.800 511.431,106.800 511.736 C 106.800 512.283,108.410 513.200,109.372 513.200 C 109.666 513.200,110.001 513.560,110.116 514.000 C 110.282 514.636,110.662 514.800,111.963 514.800 C 113.333 514.800,113.600 514.930,113.600 515.600 C 113.600 516.264,113.867 516.400,115.172 516.400 C 116.496 516.400,116.765 516.542,116.872 517.296 C 116.942 517.789,117.331 518.255,117.736 518.332 C 118.141 518.409,118.816 518.816,119.236 519.236 C 119.656 519.656,120.429 520.000,120.953 520.000 C 121.570 520.000,121.981 520.282,122.116 520.800 C 122.281 521.433,122.662 521.600,123.935 521.600 C 125.299 521.600,125.564 521.737,125.672 522.500 C 125.778 523.248,126.087 523.421,127.500 523.523 C 128.874 523.622,129.200 523.795,129.200 524.423 C 129.200 524.917,129.474 525.200,129.953 525.200 C 130.370 525.200,130.800 525.557,130.916 526.000 C 131.082 526.636,131.462 526.800,132.763 526.800 C 134.102 526.800,134.400 526.938,134.400 527.557 C 134.400 528.379,135.140 528.800,136.586 528.800 C 137.170 528.800,137.583 529.092,137.716 529.600 C 137.843 530.085,138.262 530.400,138.779 530.400 C 139.249 530.400,140.020 530.760,140.492 531.200 C 140.964 531.640,141.665 532.000,142.048 532.000 C 142.432 532.000,142.856 532.345,142.990 532.768 C 143.151 533.277,143.752 533.623,144.778 533.796 C 145.832 533.974,146.386 534.302,146.523 534.829 C 146.681 535.432,147.082 535.600,148.363 535.600 C 149.733 535.600,150.000 535.730,150.000 536.400 C 150.000 536.929,150.267 537.200,150.786 537.200 C 151.218 537.200,151.760 537.552,151.991 537.983 C 152.221 538.413,153.021 538.880,153.768 539.020 C 154.632 539.182,155.199 539.553,155.326 540.038 C 155.475 540.609,155.885 540.800,156.963 540.800 C 157.753 540.800,158.400 540.980,158.400 541.200 C 158.400 541.435,159.800 541.600,161.800 541.600 L 165.200 541.600 165.200 538.628 C 165.200 535.850,165.259 535.647,166.100 535.528 C 166.938 535.409,167.008 535.175,167.115 532.143 C 167.216 529.296,167.330 528.859,168.015 528.680 C 168.693 528.503,168.800 528.121,168.800 525.884 C 168.800 523.630,168.904 523.266,169.600 523.084 C 170.317 522.897,170.400 522.538,170.400 519.637 C 170.400 516.728,170.477 516.400,171.157 516.400 C 172.170 516.400,172.400 515.652,172.400 512.367 C 172.400 509.867,172.477 509.600,173.200 509.600 C 173.918 509.600,174.000 509.333,174.000 507.000 C 174.000 504.933,174.164 504.236,174.800 503.600 C 175.437 502.963,175.600 502.267,175.600 500.187 C 175.600 498.064,175.731 497.527,176.300 497.317 C 177.417 496.905,177.587 496.375,177.594 493.300 C 177.599 490.669,177.674 490.400,178.400 490.400 C 179.137 490.400,179.200 490.133,179.200 487.000 C 179.200 483.867,179.263 483.600,180.000 483.600 C 180.717 483.600,180.800 483.333,180.800 481.027 C 180.800 478.860,180.919 478.416,181.552 478.215 C 182.400 477.946,182.800 476.460,182.800 473.577 C 182.800 472.005,182.946 471.608,183.600 471.400 C 184.317 471.173,184.400 470.795,184.400 467.773 C 184.400 464.667,184.463 464.400,185.200 464.400 C 185.913 464.400,186.000 464.133,186.000 461.946 C 186.000 459.842,186.143 459.359,187.000 458.565 C 187.870 457.758,188.000 457.299,188.000 455.019 C 188.000 453.047,188.138 452.400,188.557 452.400 C 189.362 452.400,189.600 451.489,189.600 448.414 C 189.600 446.030,189.699 445.667,190.400 445.484 C 191.114 445.297,191.200 444.938,191.200 442.132 C 191.200 439.257,191.277 438.956,192.100 438.595 C 192.864 438.260,193.018 437.842,193.122 435.835 C 193.204 434.242,193.498 433.148,194.022 432.481 C 194.608 431.737,194.800 430.863,194.800 428.946 C 194.800 426.667,194.884 426.400,195.600 426.400 C 196.337 426.400,196.400 426.133,196.400 423.000 C 196.400 419.931,196.474 419.600,197.157 419.600 C 198.167 419.600,198.400 418.852,198.400 415.614 C 198.400 413.230,198.499 412.867,199.200 412.684 C 199.896 412.502,200.000 412.138,200.000 409.884 C 200.000 407.630,200.104 407.266,200.800 407.084 C 201.517 406.897,201.600 406.538,201.600 403.637 C 201.600 400.733,201.678 400.400,202.353 400.400 C 203.288 400.400,203.587 399.363,203.595 396.100 C 203.599 393.868,203.686 393.600,204.400 393.600 C 205.118 393.600,205.200 393.333,205.200 391.000 C 205.200 388.933,205.364 388.236,206.000 387.600 C 206.634 386.966,206.800 386.267,206.800 384.227 C 206.800 382.060,206.919 381.616,207.552 381.415 C 208.400 381.146,208.800 379.660,208.800 376.777 C 208.800 375.205,208.946 374.808,209.600 374.600 C 210.317 374.373,210.400 373.995,210.400 370.973 C 210.400 367.867,210.463 367.600,211.200 367.600 C 211.917 367.600,212.000 367.333,212.000 365.027 C 212.000 362.860,212.119 362.416,212.752 362.215 C 213.594 361.948,214.000 360.461,214.000 357.646 C 214.000 356.226,214.187 355.676,214.800 355.293 C 215.483 354.867,215.600 354.360,215.600 351.843 C 215.600 349.230,215.691 348.869,216.400 348.684 C 217.121 348.496,217.200 348.138,217.200 345.065 C 217.200 341.834,217.247 341.649,218.100 341.528 C 218.898 341.414,219.014 341.138,219.121 339.079 C 219.206 337.429,219.466 336.534,220.021 335.979 C 220.642 335.358,220.800 334.642,220.800 332.447 C 220.800 330.030,220.898 329.668,221.600 329.484 C 222.317 329.297,222.400 328.938,222.400 326.037 C 222.400 323.128,222.477 322.800,223.157 322.800 C 224.115 322.800,224.400 322.049,224.400 319.530 C 224.400 318.132,224.642 317.219,225.200 316.509 C 225.806 315.739,226.000 314.886,226.000 312.993 C 226.000 310.830,226.108 310.465,226.800 310.284 C 227.517 310.097,227.600 309.738,227.600 306.837 C 227.600 303.928,227.677 303.600,228.357 303.600 C 229.367 303.600,229.600 302.852,229.600 299.614 C 229.600 297.230,229.699 296.867,230.400 296.684 C 231.096 296.502,231.200 296.138,231.200 293.884 C 231.200 291.630,231.304 291.266,232.000 291.084 C 232.717 290.897,232.800 290.538,232.800 287.637 C 232.800 284.739,232.878 284.400,233.550 284.400 C 234.428 284.400,234.800 283.015,234.800 279.750 C 234.800 277.867,234.899 277.600,235.600 277.600 C 236.337 277.600,236.400 277.333,236.400 274.200 C 236.400 271.067,236.463 270.800,237.200 270.800 C 237.916 270.800,238.000 270.533,238.000 268.247 C 238.000 266.100,238.118 265.663,238.739 265.500 C 239.571 265.282,240.000 263.699,240.000 260.846 C 240.000 259.426,240.187 258.876,240.800 258.493 C 241.492 258.061,241.600 257.560,241.600 254.797 C 241.600 251.867,241.667 251.600,242.400 251.600 C 243.117 251.600,243.200 251.333,243.200 249.020 C 243.200 247.274,243.375 246.336,243.742 246.120 C 244.708 245.549,245.200 244.100,245.200 241.826 C 245.200 240.190,245.348 239.600,245.757 239.600 C 246.562 239.600,246.800 238.689,246.800 235.614 C 246.800 233.230,246.899 232.867,247.600 232.684 C 248.314 232.497,248.400 232.138,248.400 229.332 C 248.400 226.457,248.477 226.156,249.300 225.795 C 250.064 225.460,250.218 225.042,250.322 223.028 C 250.407 221.379,250.648 220.507,251.112 220.167 C 251.606 219.807,251.820 218.893,251.932 216.675 C 252.060 214.136,252.201 213.641,252.842 213.473 C 253.507 213.299,253.600 212.879,253.600 210.037 C 253.600 207.128,253.677 206.800,254.357 206.800 C 255.315 206.800,255.600 206.049,255.600 203.530 C 255.600 202.132,255.842 201.219,256.400 200.509 C 257.006 199.739,257.200 198.886,257.200 196.993 C 257.200 194.830,257.308 194.465,258.000 194.284 C 258.717 194.097,258.800 193.738,258.800 190.837 C 258.800 187.933,258.878 187.600,259.553 187.600 C 260.488 187.600,260.787 186.563,260.795 183.300 C 260.799 181.068,260.886 180.800,261.600 180.800 C 262.318 180.800,262.400 180.533,262.400 178.200 C 262.400 176.133,262.564 175.436,263.200 174.800 C 263.834 174.166,264.000 173.467,264.000 171.427 C 264.000 169.260,264.119 168.816,264.752 168.615 C 265.619 168.340,266.000 166.856,266.000 163.750 C 266.000 161.867,266.099 161.600,266.800 161.600 C 267.537 161.600,267.600 161.333,267.600 158.200 C 267.600 155.067,267.663 154.800,268.400 154.800 C 269.115 154.800,269.200 154.533,269.200 152.296 C 269.200 150.226,269.338 149.706,270.000 149.293 C 270.684 148.865,270.800 148.360,270.800 145.797 C 270.800 143.123,270.882 142.800,271.557 142.800 C 272.511 142.800,272.800 142.049,272.800 139.567 L 272.800 137.600 323.800 137.600 L 374.800 137.600 374.800 135.827 C 374.800 134.443,374.965 134.002,375.552 133.815 C 376.394 133.548,376.800 132.061,376.800 129.246 C 376.800 127.826,376.987 127.276,377.600 126.893 C 378.283 126.467,378.400 125.960,378.400 123.443 C 378.400 120.830,378.491 120.469,379.200 120.284 C 379.921 120.096,380.000 119.738,380.000 116.665 C 380.000 113.434,380.047 113.249,380.900 113.128 C 381.701 113.014,381.813 112.739,381.922 110.628 C 382.007 108.979,382.248 108.107,382.712 107.767 C 383.206 107.407,383.420 106.493,383.532 104.275 C 383.660 101.736,383.801 101.241,384.442 101.073 C 385.105 100.900,385.200 100.481,385.200 97.732 C 385.200 94.857,385.277 94.556,386.100 94.195 C 386.913 93.838,387.011 93.482,387.116 90.500 C 387.221 87.529,387.310 87.200,388.016 87.200 C 388.711 87.200,388.800 86.916,388.800 84.696 C 388.800 82.626,388.938 82.106,389.600 81.693 C 390.284 81.265,390.400 80.760,390.400 78.197 C 390.400 75.778,390.518 75.200,391.010 75.200 C 391.871 75.200,392.400 73.535,392.400 70.821 C 392.400 68.830,392.516 68.463,393.200 68.284 C 393.916 68.097,394.000 67.738,394.000 64.884 C 394.000 62.030,394.084 61.671,394.800 61.484 C 395.497 61.302,395.600 60.938,395.600 58.657 C 395.600 56.880,395.774 55.937,396.142 55.720 C 397.108 55.149,397.600 53.700,397.600 51.426 C 397.600 49.797,397.748 49.200,398.153 49.200 C 398.884 49.200,399.188 47.946,399.195 44.900 C 399.198 43.504,399.377 42.400,399.600 42.400 C 399.842 42.400,400.000 40.667,400.000 38.000 L 400.000 33.600 390.014 33.600 C 380.551 33.600,380.006 33.640,379.614 34.374 M39.586 119.562 C 37.708 119.939,37.200 120.293,37.200 121.224 C 37.200 121.651,36.840 122.360,36.400 122.800 C 35.752 123.448,35.600 124.133,35.600 126.400 C 35.600 128.899,35.517 129.200,34.829 129.200 C 33.941 129.200,33.441 131.874,33.670 135.400 L 33.800 137.400 62.466 137.503 L 91.131 137.605 92.028 136.154 C 92.522 135.356,93.247 133.420,93.639 131.852 C 94.865 126.959,95.267 125.479,96.084 122.858 C 96.680 120.949,96.763 120.203,96.419 119.858 C 95.900 119.340,42.092 119.060,39.586 119.562 " stroke="none" fill="#fc04fc" fill-rule="evenodd"></path></g></svg>